%TF.GenerationSoftware,KiCad,Pcbnew,9.0.2*%
%TF.CreationDate,2025-07-11T16:03:10-07:00*%
%TF.ProjectId,undercity,756e6465-7263-4697-9479-2e6b69636164,rev?*%
%TF.SameCoordinates,Original*%
%TF.FileFunction,Copper,L1,Top*%
%TF.FilePolarity,Positive*%
%FSLAX46Y46*%
G04 Gerber Fmt 4.6, Leading zero omitted, Abs format (unit mm)*
G04 Created by KiCad (PCBNEW 9.0.2) date 2025-07-11 16:03:10*
%MOMM*%
%LPD*%
G01*
G04 APERTURE LIST*
G04 Aperture macros list*
%AMRoundRect*
0 Rectangle with rounded corners*
0 $1 Rounding radius*
0 $2 $3 $4 $5 $6 $7 $8 $9 X,Y pos of 4 corners*
0 Add a 4 corners polygon primitive as box body*
4,1,4,$2,$3,$4,$5,$6,$7,$8,$9,$2,$3,0*
0 Add four circle primitives for the rounded corners*
1,1,$1+$1,$2,$3*
1,1,$1+$1,$4,$5*
1,1,$1+$1,$6,$7*
1,1,$1+$1,$8,$9*
0 Add four rect primitives between the rounded corners*
20,1,$1+$1,$2,$3,$4,$5,0*
20,1,$1+$1,$4,$5,$6,$7,0*
20,1,$1+$1,$6,$7,$8,$9,0*
20,1,$1+$1,$8,$9,$2,$3,0*%
G04 Aperture macros list end*
%TA.AperFunction,ComponentPad*%
%ADD10R,2.000000X2.000000*%
%TD*%
%TA.AperFunction,ComponentPad*%
%ADD11C,2.000000*%
%TD*%
%TA.AperFunction,ComponentPad*%
%ADD12R,3.200000X2.000000*%
%TD*%
%TA.AperFunction,ComponentPad*%
%ADD13C,2.200000*%
%TD*%
%TA.AperFunction,SMDPad,CuDef*%
%ADD14RoundRect,0.152400X1.063600X0.609600X-1.063600X0.609600X-1.063600X-0.609600X1.063600X-0.609600X0*%
%TD*%
%TA.AperFunction,ComponentPad*%
%ADD15C,1.524000*%
%TD*%
%TA.AperFunction,SMDPad,CuDef*%
%ADD16RoundRect,0.152400X-1.063600X-0.609600X1.063600X-0.609600X1.063600X0.609600X-1.063600X0.609600X0*%
%TD*%
%TA.AperFunction,SMDPad,CuDef*%
%ADD17R,1.600000X0.850000*%
%TD*%
%TA.AperFunction,ViaPad*%
%ADD18C,0.600000*%
%TD*%
%TA.AperFunction,Conductor*%
%ADD19C,0.200000*%
%TD*%
G04 APERTURE END LIST*
D10*
%TO.P,SW5,A,A*%
%TO.N,Net-(U1-GPIO26{slash}ADC0{slash}A0)*%
X131000000Y-76700000D03*
D11*
%TO.P,SW5,B,B*%
%TO.N,Net-(U1-GPIO27{slash}ADC1{slash}A1)*%
X131000000Y-81700000D03*
%TO.P,SW5,C,C*%
%TO.N,GND*%
X131000000Y-79200000D03*
D12*
%TO.P,SW5,MP,MP*%
%TO.N,unconnected-(SW5-PadMP)*%
X138500000Y-73600000D03*
X138500000Y-84800000D03*
D11*
%TO.P,SW5,S1,S1*%
%TO.N,Net-(U1-GPIO29{slash}ADC3{slash}A3)*%
X145500000Y-81700000D03*
%TO.P,SW5,S2,S2*%
%TO.N,GND*%
X145500000Y-76700000D03*
%TD*%
D13*
%TO.P,SW4,1,1*%
%TO.N,GND*%
X163760000Y-54620000D03*
%TO.P,SW4,2,2*%
%TO.N,Net-(U1-GPIO3{slash}MOSI)*%
X157410000Y-57160000D03*
%TD*%
D14*
%TO.P,U1,1,GPIO26/ADC0/A0*%
%TO.N,Net-(U1-GPIO26{slash}ADC0{slash}A0)*%
X129945000Y-45348500D03*
D15*
X130780000Y-45348500D03*
D14*
%TO.P,U1,2,GPIO27/ADC1/A1*%
%TO.N,Net-(U1-GPIO27{slash}ADC1{slash}A1)*%
X129945000Y-47888500D03*
D15*
X130780000Y-47888500D03*
D14*
%TO.P,U1,3,GPIO28/ADC2/A2*%
%TO.N,unconnected-(U1-GPIO28{slash}ADC2{slash}A2-Pad3)*%
X129945000Y-50428500D03*
D15*
X130780000Y-50428500D03*
D14*
%TO.P,U1,4,GPIO29/ADC3/A3*%
%TO.N,Net-(U1-GPIO29{slash}ADC3{slash}A3)*%
X129945000Y-52968500D03*
D15*
X130780000Y-52968500D03*
D14*
%TO.P,U1,5,GPIO6/SDA*%
%TO.N,Net-(D1-DIN)*%
X129945000Y-55508500D03*
D15*
X130780000Y-55508500D03*
D14*
%TO.P,U1,6,GPIO7/SCL*%
%TO.N,unconnected-(U1-GPIO7{slash}SCL-Pad6)*%
X129945000Y-58048500D03*
D15*
X130780000Y-58048500D03*
D14*
%TO.P,U1,7,GPIO0/TX*%
%TO.N,unconnected-(U1-GPIO0{slash}TX-Pad7)*%
X129945000Y-60588500D03*
D15*
X130780000Y-60588500D03*
%TO.P,U1,8,GPIO1/RX*%
%TO.N,Net-(U1-GPIO1{slash}RX)*%
X146020000Y-60588500D03*
D16*
X146855000Y-60588500D03*
D15*
%TO.P,U1,9,GPIO2/SCK*%
%TO.N,Net-(U1-GPIO2{slash}SCK)*%
X146020000Y-58048500D03*
D16*
X146855000Y-58048500D03*
D15*
%TO.P,U1,10,GPIO4/MISO*%
%TO.N,Net-(U1-GPIO4{slash}MISO)*%
X146020000Y-55508500D03*
D16*
X146855000Y-55508500D03*
D15*
%TO.P,U1,11,GPIO3/MOSI*%
%TO.N,Net-(U1-GPIO3{slash}MOSI)*%
X146020000Y-52968500D03*
D16*
X146855000Y-52968500D03*
D15*
%TO.P,U1,12,3V3*%
%TO.N,unconnected-(U1-3V3-Pad12)*%
X146020000Y-50428500D03*
D16*
X146855000Y-50428500D03*
D15*
%TO.P,U1,13,GND*%
%TO.N,GND*%
X146020000Y-47888500D03*
D16*
X146855000Y-47888500D03*
D15*
%TO.P,U1,14,VBUS*%
%TO.N,+5V*%
X146020000Y-45348500D03*
D16*
X146855000Y-45348500D03*
%TD*%
D13*
%TO.P,SW1,2,2*%
%TO.N,Net-(U1-GPIO1{slash}RX)*%
X176490000Y-76260000D03*
%TO.P,SW1,1,1*%
%TO.N,GND*%
X182840000Y-73720000D03*
%TD*%
%TO.P,SW2,2,2*%
%TO.N,Net-(U1-GPIO2{slash}SCK)*%
X157410000Y-76260000D03*
%TO.P,SW2,1,1*%
%TO.N,GND*%
X163760000Y-73720000D03*
%TD*%
%TO.P,SW3,2,2*%
%TO.N,Net-(U1-GPIO4{slash}MISO)*%
X176470000Y-57160000D03*
%TO.P,SW3,1,1*%
%TO.N,GND*%
X182820000Y-54620000D03*
%TD*%
D17*
%TO.P,D2,4,VDD*%
%TO.N,+5V*%
X131700000Y-67100000D03*
%TO.P,D2,3,DIN*%
%TO.N,Net-(D1-DOUT)*%
X131700000Y-65350000D03*
%TO.P,D2,2,VSS*%
%TO.N,GND*%
X135200000Y-65350000D03*
%TO.P,D2,1,DOUT*%
%TO.N,unconnected-(D2-DOUT-Pad1)*%
X135200000Y-67100000D03*
%TD*%
%TO.P,D1,4,VDD*%
%TO.N,+5V*%
X141900000Y-67000000D03*
%TO.P,D1,3,DIN*%
%TO.N,Net-(D1-DIN)*%
X141900000Y-65250000D03*
%TO.P,D1,2,VSS*%
%TO.N,GND*%
X145400000Y-65250000D03*
%TO.P,D1,1,DOUT*%
%TO.N,Net-(D1-DOUT)*%
X145400000Y-67000000D03*
%TD*%
D18*
%TO.N,+5V*%
X143700000Y-66700000D03*
X140600000Y-67100000D03*
%TO.N,Net-(U1-GPIO2{slash}SCK)*%
X156100000Y-74800000D03*
X148700000Y-58500000D03*
%TO.N,Net-(U1-GPIO1{slash}RX)*%
X173100000Y-76400000D03*
X149300000Y-60500000D03*
%TO.N,+5V*%
X133200000Y-67100000D03*
%TO.N,Net-(D1-DOUT)*%
X129700000Y-65500000D03*
X143200000Y-69100000D03*
%TD*%
D19*
%TO.N,Net-(D1-DOUT)*%
X145400000Y-67000000D02*
X143300000Y-69100000D01*
X143300000Y-69100000D02*
X143200000Y-69100000D01*
%TO.N,+5V*%
X143400000Y-67000000D02*
X143700000Y-66700000D01*
X141900000Y-67000000D02*
X143400000Y-67000000D01*
X140600000Y-67100000D02*
X141800000Y-67100000D01*
X141800000Y-67100000D02*
X141900000Y-67000000D01*
%TO.N,GND*%
X144674000Y-65976000D02*
X145400000Y-65250000D01*
%TO.N,Net-(U1-GPIO29{slash}ADC3{slash}A3)*%
X145500000Y-81700000D02*
X144199000Y-83001000D01*
X144199000Y-83001000D02*
X130461108Y-83001000D01*
X130461108Y-83001000D02*
X127599000Y-80138892D01*
X131220310Y-44285500D02*
X132244000Y-45309190D01*
X127599000Y-80138892D02*
X127599000Y-45375874D01*
X127599000Y-45375874D02*
X128689374Y-44285500D01*
X128689374Y-44285500D02*
X131220310Y-44285500D01*
X132244000Y-45309190D02*
X132244000Y-51504500D01*
X132244000Y-51504500D02*
X130780000Y-52968500D01*
%TO.N,Net-(U1-GPIO2{slash}SCK)*%
X148700000Y-58500000D02*
X148248500Y-58048500D01*
X148248500Y-58048500D02*
X146020000Y-58048500D01*
X156100000Y-74950000D02*
X156100000Y-74800000D01*
X157410000Y-76260000D02*
X156100000Y-74950000D01*
%TO.N,Net-(U1-GPIO1{slash}RX)*%
X146020000Y-60588500D02*
X149211500Y-60588500D01*
X149211500Y-60588500D02*
X149300000Y-60500000D01*
X173240000Y-76260000D02*
X173100000Y-76400000D01*
X176490000Y-76260000D02*
X173240000Y-76260000D01*
%TO.N,GND*%
X163760000Y-73720000D02*
X148480000Y-73720000D01*
X148480000Y-73720000D02*
X145500000Y-76700000D01*
X182840000Y-73720000D02*
X163760000Y-73720000D01*
%TO.N,Net-(U1-GPIO4{slash}MISO)*%
X176470000Y-57160000D02*
X159391314Y-57160000D01*
X159391314Y-57160000D02*
X157990314Y-58561000D01*
X157990314Y-58561000D02*
X156829686Y-58561000D01*
X156829686Y-58561000D02*
X153777186Y-55508500D01*
X153777186Y-55508500D02*
X146855000Y-55508500D01*
%TO.N,Net-(U1-GPIO3{slash}MOSI)*%
X157410000Y-57160000D02*
X153218500Y-52968500D01*
X153218500Y-52968500D02*
X146855000Y-52968500D01*
%TO.N,GND*%
X182820000Y-54620000D02*
X163760000Y-54620000D01*
X163760000Y-54620000D02*
X157028500Y-47888500D01*
X157028500Y-47888500D02*
X146020000Y-47888500D01*
%TO.N,Net-(U1-GPIO27{slash}ADC1{slash}A1)*%
X131000000Y-81700000D02*
X128000000Y-78700000D01*
X128000000Y-78700000D02*
X128000000Y-49590870D01*
X129702370Y-47888500D02*
X130780000Y-47888500D01*
X128000000Y-49590870D02*
X129702370Y-47888500D01*
%TO.N,Net-(U1-GPIO26{slash}ADC0{slash}A0)*%
X131000000Y-76700000D02*
X128428000Y-74128000D01*
X128428000Y-74128000D02*
X128428000Y-52166874D01*
X128428000Y-52166874D02*
X129103374Y-51491500D01*
X131843000Y-50868810D02*
X131843000Y-46411500D01*
X129103374Y-51491500D02*
X131220310Y-51491500D01*
X131220310Y-51491500D02*
X131843000Y-50868810D01*
X131843000Y-46411500D02*
X130780000Y-45348500D01*
%TO.N,GND*%
X136600000Y-66750000D02*
X136600000Y-72300000D01*
X145500000Y-76700000D02*
X138398000Y-76700000D01*
X138398000Y-76700000D02*
X136600000Y-74902000D01*
X136600000Y-74902000D02*
X136600000Y-72300000D01*
X135200000Y-65350000D02*
X136600000Y-66750000D01*
X136600000Y-72300000D02*
X136600000Y-73600000D01*
X136600000Y-73600000D02*
X131000000Y-79200000D01*
%TO.N,+5V*%
X131700000Y-67100000D02*
X133200000Y-67100000D01*
%TO.N,Net-(D1-DOUT)*%
X129700000Y-65500000D02*
X129850000Y-65350000D01*
X129850000Y-65350000D02*
X131700000Y-65350000D01*
%TO.N,Net-(D1-DIN)*%
X141900000Y-65250000D02*
X140621500Y-65250000D01*
X140621500Y-65250000D02*
X130780000Y-55408500D01*
%TO.N,GND*%
X144674000Y-65976000D02*
X135826000Y-65976000D01*
X135826000Y-65976000D02*
X135200000Y-65350000D01*
X144957000Y-48851500D02*
X146020000Y-47788500D01*
X144957000Y-64807000D02*
X144957000Y-48851500D01*
%TO.N,Net-(U1-GPIO3{slash}MOSI)*%
X147063500Y-52660000D02*
X146855000Y-52868500D01*
%TD*%
M02*
