%TF.GenerationSoftware,KiCad,Pcbnew,9.0.2*%
%TF.CreationDate,2025-07-11T16:03:10-07:00*%
%TF.ProjectId,undercity,756e6465-7263-4697-9479-2e6b69636164,rev?*%
%TF.SameCoordinates,Original*%
%TF.FileFunction,Soldermask,Bot*%
%TF.FilePolarity,Negative*%
%FSLAX46Y46*%
G04 Gerber Fmt 4.6, Leading zero omitted, Abs format (unit mm)*
G04 Created by KiCad (PCBNEW 9.0.2) date 2025-07-11 16:03:10*
%MOMM*%
%LPD*%
G01*
G04 APERTURE LIST*
%ADD10R,2.000000X2.000000*%
%ADD11C,2.000000*%
%ADD12R,3.200000X2.000000*%
%ADD13C,1.700000*%
%ADD14C,4.000000*%
%ADD15C,2.200000*%
%ADD16C,1.524000*%
G04 APERTURE END LIST*
D10*
%TO.C,SW5*%
X131000000Y-76700000D03*
D11*
X131000000Y-81700000D03*
X131000000Y-79200000D03*
D12*
X138500000Y-73600000D03*
X138500000Y-84800000D03*
D11*
X145500000Y-81700000D03*
X145500000Y-76700000D03*
%TD*%
D13*
%TO.C,SW4*%
X156140000Y-59700000D03*
D14*
X161220000Y-59700000D03*
D13*
X166300000Y-59700000D03*
D15*
X163760000Y-54620000D03*
X157410000Y-57160000D03*
%TD*%
D16*
%TO.C,U1*%
X130780000Y-45348500D03*
X130780000Y-47888500D03*
X130780000Y-50428500D03*
X130780000Y-52968500D03*
X130780000Y-55508500D03*
X130780000Y-58048500D03*
X130780000Y-60588500D03*
X146020000Y-60588500D03*
X146020000Y-58048500D03*
X146020000Y-55508500D03*
X146020000Y-52968500D03*
X146020000Y-50428500D03*
X146020000Y-47888500D03*
X146020000Y-45348500D03*
%TD*%
D15*
%TO.C,SW1*%
X176490000Y-76260000D03*
X182840000Y-73720000D03*
D13*
X185380000Y-78800000D03*
D14*
X180300000Y-78800000D03*
D13*
X175220000Y-78800000D03*
%TD*%
D15*
%TO.C,SW2*%
X157410000Y-76260000D03*
X163760000Y-73720000D03*
D13*
X166300000Y-78800000D03*
D14*
X161220000Y-78800000D03*
D13*
X156140000Y-78800000D03*
%TD*%
D15*
%TO.C,SW3*%
X176470000Y-57160000D03*
X182820000Y-54620000D03*
D13*
X185360000Y-59700000D03*
D14*
X180280000Y-59700000D03*
D13*
X175200000Y-59700000D03*
%TD*%
M02*
