%TF.GenerationSoftware,KiCad,Pcbnew,9.0.2*%
%TF.CreationDate,2025-07-11T16:03:10-07:00*%
%TF.ProjectId,undercity,756e6465-7263-4697-9479-2e6b69636164,rev?*%
%TF.SameCoordinates,Original*%
%TF.FileFunction,Legend,Top*%
%TF.FilePolarity,Positive*%
%FSLAX46Y46*%
G04 Gerber Fmt 4.6, Leading zero omitted, Abs format (unit mm)*
G04 Created by KiCad (PCBNEW 9.0.2) date 2025-07-11 16:03:10*
%MOMM*%
%LPD*%
G01*
G04 APERTURE LIST*
%ADD10C,0.100000*%
%ADD11C,0.150000*%
%ADD12C,0.101600*%
%ADD13C,0.120000*%
%ADD14C,0.127000*%
%ADD15C,0.504000*%
G04 APERTURE END LIST*
D10*
G36*
X155325941Y-47199823D02*
G01*
X155367462Y-47215243D01*
X155402643Y-47240450D01*
X155429818Y-47273863D01*
X155446166Y-47312971D01*
X155451857Y-47359518D01*
X155444903Y-47414597D01*
X155424157Y-47465220D01*
X155388396Y-47512927D01*
X155334679Y-47558523D01*
X155258622Y-47602008D01*
X155154675Y-47642657D01*
X155180822Y-47709760D01*
X155231856Y-47823213D01*
X155274716Y-47756863D01*
X155317517Y-47705455D01*
X155360300Y-47666752D01*
X155403314Y-47638932D01*
X155450106Y-47618982D01*
X155509301Y-47603310D01*
X155583401Y-47592912D01*
X155675218Y-47589106D01*
X155891739Y-47589106D01*
X156029397Y-47585461D01*
X156110798Y-47576773D01*
X156154056Y-47565903D01*
X156180438Y-47551475D01*
X156198937Y-47531121D01*
X156210600Y-47503750D01*
X156214872Y-47467046D01*
X156210421Y-47435470D01*
X156197598Y-47409456D01*
X156175894Y-47387608D01*
X156143187Y-47369532D01*
X156241556Y-47273361D01*
X156277998Y-47312535D01*
X156299193Y-47356555D01*
X156306402Y-47407267D01*
X156301499Y-47450074D01*
X156286777Y-47490634D01*
X156261445Y-47529907D01*
X156223759Y-47568512D01*
X156171153Y-47606692D01*
X156102128Y-47642731D01*
X156026543Y-47668925D01*
X155943380Y-47685114D01*
X155851439Y-47690711D01*
X155799537Y-47690711D01*
X155751767Y-47784129D01*
X155690814Y-47872150D01*
X155615754Y-47955314D01*
X155525264Y-48033916D01*
X155417663Y-48108000D01*
X155498903Y-48189784D01*
X155584378Y-48256900D01*
X155674485Y-48310478D01*
X155770740Y-48351105D01*
X155864635Y-48374683D01*
X155957318Y-48382407D01*
X156020184Y-48377418D01*
X156074344Y-48363205D01*
X156121312Y-48340392D01*
X156162238Y-48308890D01*
X156196009Y-48269712D01*
X156220112Y-48225241D01*
X156234967Y-48174431D01*
X156240151Y-48115816D01*
X156233215Y-48063729D01*
X156213443Y-48021475D01*
X156180475Y-47986666D01*
X156131524Y-47958463D01*
X156241556Y-47855881D01*
X156278479Y-47878475D01*
X156306630Y-47906897D01*
X156327098Y-47941774D01*
X156340046Y-47984467D01*
X156344687Y-48036926D01*
X156339008Y-48103960D01*
X156322331Y-48165765D01*
X156294662Y-48223425D01*
X156255306Y-48277763D01*
X156202904Y-48329284D01*
X156144330Y-48371926D01*
X156081124Y-48405063D01*
X156012630Y-48429028D01*
X155938008Y-48443768D01*
X155856263Y-48448841D01*
X155783641Y-48444449D01*
X155711076Y-48431195D01*
X155638082Y-48408780D01*
X155564209Y-48376667D01*
X155472079Y-48322767D01*
X155385358Y-48255536D01*
X155303602Y-48173946D01*
X155227227Y-48208925D01*
X155149424Y-48233652D01*
X155069669Y-48248472D01*
X154987369Y-48253447D01*
X154923942Y-48248412D01*
X154868410Y-48233971D01*
X154819413Y-48210630D01*
X154775915Y-48178220D01*
X154739536Y-48137859D01*
X154713919Y-48093030D01*
X154698325Y-48042804D01*
X154692934Y-47985818D01*
X154696874Y-47941427D01*
X154835694Y-47941427D01*
X154840074Y-47991374D01*
X154852699Y-48035310D01*
X154873294Y-48074362D01*
X154902250Y-48109344D01*
X154937514Y-48138008D01*
X154976858Y-48158422D01*
X155021091Y-48170945D01*
X155071327Y-48175289D01*
X155127088Y-48170877D01*
X155191888Y-48156567D01*
X155267393Y-48130409D01*
X155203901Y-48043237D01*
X155142461Y-47939645D01*
X155105488Y-47863330D01*
X155252372Y-47863330D01*
X155319506Y-47976809D01*
X155388293Y-48075394D01*
X155472668Y-48020488D01*
X155544894Y-47955424D01*
X155606015Y-47879595D01*
X155656537Y-47791883D01*
X155696406Y-47690711D01*
X155616477Y-47690711D01*
X155529646Y-47696252D01*
X155455515Y-47711892D01*
X155392129Y-47736570D01*
X155337867Y-47769826D01*
X155291522Y-47811822D01*
X155252372Y-47863330D01*
X155105488Y-47863330D01*
X155083337Y-47817609D01*
X155026936Y-47674897D01*
X154964791Y-47709278D01*
X154916968Y-47747292D01*
X154881264Y-47788878D01*
X154856164Y-47834454D01*
X154840936Y-47884888D01*
X154835694Y-47941427D01*
X154696874Y-47941427D01*
X154697763Y-47931404D01*
X154711937Y-47881458D01*
X154735481Y-47835024D01*
X154769077Y-47791400D01*
X154824182Y-47741866D01*
X154904140Y-47689767D01*
X155015334Y-47635085D01*
X154990290Y-47551904D01*
X154982545Y-47478892D01*
X154988006Y-47425821D01*
X154993235Y-47409771D01*
X155101430Y-47409771D01*
X155109618Y-47487224D01*
X155139654Y-47603517D01*
X155206305Y-47569834D01*
X155256652Y-47533485D01*
X155293481Y-47494682D01*
X155318856Y-47453157D01*
X155333988Y-47408177D01*
X155339139Y-47358602D01*
X155335909Y-47320230D01*
X155327259Y-47291685D01*
X155314166Y-47270675D01*
X155295632Y-47254862D01*
X155271328Y-47244921D01*
X155239427Y-47241304D01*
X155202518Y-47246645D01*
X155170169Y-47262429D01*
X155141058Y-47289726D01*
X155119370Y-47323892D01*
X155106077Y-47363440D01*
X155101430Y-47409771D01*
X154993235Y-47409771D01*
X155004287Y-47375847D01*
X155031930Y-47327950D01*
X155072365Y-47281421D01*
X155120084Y-47242481D01*
X155169464Y-47215653D01*
X155221212Y-47199759D01*
X155276308Y-47194410D01*
X155325941Y-47199823D01*
G37*
G36*
X157508260Y-48096521D02*
G01*
X157373682Y-48230000D01*
X156497217Y-48230000D01*
X156497217Y-47421067D01*
X156564200Y-47421067D01*
X156564872Y-48163565D01*
X157306027Y-48163565D01*
X157306027Y-47421067D01*
X156564200Y-47421067D01*
X156497217Y-47421067D01*
X156497217Y-47353107D01*
X156631795Y-47217857D01*
X157508260Y-47217857D01*
X157508260Y-48096521D01*
G37*
G36*
X158829184Y-47586058D02*
G01*
X158875650Y-47600021D01*
X158918482Y-47623214D01*
X158958391Y-47656395D01*
X158991568Y-47696300D01*
X159014783Y-47739235D01*
X159028774Y-47785922D01*
X159033557Y-47837379D01*
X159028357Y-47889541D01*
X159012889Y-47938543D01*
X158986703Y-47985367D01*
X158948532Y-48030707D01*
X158896374Y-48074918D01*
X158827599Y-48118014D01*
X158745776Y-48156435D01*
X158654389Y-48187387D01*
X158552305Y-48210441D01*
X158438252Y-48224938D01*
X158310842Y-48230000D01*
X158206268Y-48224931D01*
X158097856Y-48209423D01*
X157985032Y-48182882D01*
X157867216Y-48144542D01*
X157743832Y-48093468D01*
X157743832Y-47983070D01*
X157874600Y-48037070D01*
X158000861Y-48077839D01*
X158123149Y-48106227D01*
X158242007Y-48122913D01*
X158357981Y-48128394D01*
X158487145Y-48121944D01*
X158590923Y-48104319D01*
X158673604Y-48077653D01*
X158624856Y-48047923D01*
X158586732Y-48014870D01*
X158557772Y-47978429D01*
X158536636Y-47937132D01*
X158523674Y-47890819D01*
X158519181Y-47838356D01*
X158519187Y-47838295D01*
X158586837Y-47838295D01*
X158593115Y-47887423D01*
X158611627Y-47931217D01*
X158643196Y-47971163D01*
X158683532Y-48002241D01*
X158727993Y-48020557D01*
X158778079Y-48026789D01*
X158828238Y-48020647D01*
X158872126Y-48002718D01*
X158911313Y-47972506D01*
X158941737Y-47933483D01*
X158959781Y-47889723D01*
X158965963Y-47839638D01*
X158959743Y-47788595D01*
X158941573Y-47743813D01*
X158910947Y-47703717D01*
X158871450Y-47672471D01*
X158827462Y-47654023D01*
X158777407Y-47647725D01*
X158726903Y-47653995D01*
X158682463Y-47672356D01*
X158642524Y-47703412D01*
X158611474Y-47743315D01*
X158593110Y-47787753D01*
X158586837Y-47838295D01*
X158519187Y-47838295D01*
X158524005Y-47787052D01*
X158538141Y-47740351D01*
X158561649Y-47697240D01*
X158595324Y-47657006D01*
X158635790Y-47623564D01*
X158679211Y-47600180D01*
X158726303Y-47586099D01*
X158778079Y-47581290D01*
X158829184Y-47586058D01*
G37*
G36*
X158571418Y-47222957D02*
G01*
X158679983Y-47238551D01*
X158792812Y-47265221D01*
X158910480Y-47303729D01*
X159033557Y-47355000D01*
X159033557Y-47465092D01*
X158902775Y-47410972D01*
X158776516Y-47370117D01*
X158654242Y-47341672D01*
X158535409Y-47324954D01*
X158419469Y-47319462D01*
X158290393Y-47325967D01*
X158186362Y-47343767D01*
X158103175Y-47370753D01*
X158152310Y-47400103D01*
X158190642Y-47433013D01*
X158219678Y-47469549D01*
X158240825Y-47511001D01*
X158253781Y-47557381D01*
X158258269Y-47609806D01*
X158253443Y-47661042D01*
X158239299Y-47707691D01*
X158215774Y-47750764D01*
X158182065Y-47790973D01*
X158141636Y-47824354D01*
X158098238Y-47847702D01*
X158051154Y-47861763D01*
X157999371Y-47866566D01*
X157947873Y-47861785D01*
X157901218Y-47847806D01*
X157858380Y-47824628D01*
X157818632Y-47791523D01*
X157785624Y-47751667D01*
X157762520Y-47708787D01*
X157748593Y-47662164D01*
X157743832Y-47610783D01*
X157744087Y-47608218D01*
X157811488Y-47608218D01*
X157817701Y-47659265D01*
X157835853Y-47704048D01*
X157866442Y-47744139D01*
X157905977Y-47775388D01*
X157949986Y-47793835D01*
X158000043Y-47800132D01*
X158050527Y-47793832D01*
X158094965Y-47775378D01*
X158134926Y-47744139D01*
X158166025Y-47704024D01*
X158184366Y-47659672D01*
X158190614Y-47609562D01*
X158184274Y-47560027D01*
X158165628Y-47516148D01*
X158133888Y-47476388D01*
X158093383Y-47445486D01*
X158048795Y-47427266D01*
X157998639Y-47421067D01*
X157948533Y-47427220D01*
X157904772Y-47445170D01*
X157865771Y-47475411D01*
X157835568Y-47514371D01*
X157817636Y-47558111D01*
X157811488Y-47608218D01*
X157744087Y-47608218D01*
X157749041Y-47558420D01*
X157764529Y-47509272D01*
X157790734Y-47462354D01*
X157828914Y-47416970D01*
X157881059Y-47372763D01*
X157949790Y-47329720D01*
X158031607Y-47291343D01*
X158122991Y-47260426D01*
X158225076Y-47237396D01*
X158339132Y-47222913D01*
X158466547Y-47217857D01*
X158571418Y-47222957D01*
G37*
G36*
X160131366Y-47224517D02*
G01*
X160178305Y-47244144D01*
X160221127Y-47277575D01*
X160254528Y-47320385D01*
X160274206Y-47367674D01*
X160280905Y-47421067D01*
X160274262Y-47474009D01*
X160254703Y-47521192D01*
X160221432Y-47564193D01*
X160178798Y-47597795D01*
X160131773Y-47617556D01*
X160078733Y-47624277D01*
X159977616Y-47624277D01*
X159977616Y-47823579D01*
X160078733Y-47823579D01*
X160131773Y-47830300D01*
X160178798Y-47850062D01*
X160221432Y-47883663D01*
X160254703Y-47926664D01*
X160274262Y-47973848D01*
X160280905Y-48026789D01*
X160274262Y-48079731D01*
X160254703Y-48126915D01*
X160221432Y-48169916D01*
X160178798Y-48203517D01*
X160131773Y-48223279D01*
X160078733Y-48230000D01*
X160026059Y-48223338D01*
X159979101Y-48203709D01*
X159936278Y-48170282D01*
X159902877Y-48127471D01*
X159883199Y-48080183D01*
X159876500Y-48026789D01*
X159977616Y-48026789D01*
X159980980Y-48053476D01*
X159990866Y-48077120D01*
X160007658Y-48098536D01*
X160040585Y-48120994D01*
X160078672Y-48128394D01*
X160104812Y-48125075D01*
X160128247Y-48115271D01*
X160149747Y-48098536D01*
X160166539Y-48077120D01*
X160176424Y-48053476D01*
X160179788Y-48026789D01*
X160176453Y-48000083D01*
X160166661Y-47976438D01*
X160150052Y-47955043D01*
X160128765Y-47938357D01*
X160105243Y-47928530D01*
X160078672Y-47925184D01*
X159977616Y-47925184D01*
X159977616Y-48026789D01*
X159876500Y-48026789D01*
X159876500Y-47925184D01*
X159674267Y-47925184D01*
X159674267Y-48026789D01*
X159667650Y-48079300D01*
X159648114Y-48126396D01*
X159614794Y-48169610D01*
X159572138Y-48203395D01*
X159525115Y-48223250D01*
X159472095Y-48230000D01*
X159419828Y-48223398D01*
X159372955Y-48203905D01*
X159329945Y-48170648D01*
X159296407Y-48127991D01*
X159276614Y-48080596D01*
X159269862Y-48026789D01*
X159370978Y-48026789D01*
X159378345Y-48065132D01*
X159400654Y-48098230D01*
X159422000Y-48115102D01*
X159445541Y-48125022D01*
X159472095Y-48128394D01*
X159498646Y-48125020D01*
X159522167Y-48115100D01*
X159543475Y-48098230D01*
X159565831Y-48065127D01*
X159573211Y-48026789D01*
X159573211Y-47925184D01*
X159472095Y-47925184D01*
X159445545Y-47928563D01*
X159422004Y-47938501D01*
X159400654Y-47955409D01*
X159378347Y-47988457D01*
X159370978Y-48026789D01*
X159269862Y-48026789D01*
X159276561Y-47973396D01*
X159296238Y-47926108D01*
X159329640Y-47883297D01*
X159372462Y-47849870D01*
X159419421Y-47830241D01*
X159472095Y-47823579D01*
X159573211Y-47823579D01*
X159674267Y-47823579D01*
X159876500Y-47823579D01*
X159876500Y-47624277D01*
X159674267Y-47624277D01*
X159674267Y-47823579D01*
X159573211Y-47823579D01*
X159573211Y-47624277D01*
X159472095Y-47624277D01*
X159419421Y-47617615D01*
X159372462Y-47597987D01*
X159329640Y-47564560D01*
X159296238Y-47521749D01*
X159276561Y-47474460D01*
X159269862Y-47421067D01*
X159370978Y-47421067D01*
X159374307Y-47447778D01*
X159384081Y-47471423D01*
X159400654Y-47492814D01*
X159421978Y-47509502D01*
X159445521Y-47519328D01*
X159472095Y-47522672D01*
X159573211Y-47522672D01*
X159573211Y-47421067D01*
X159569866Y-47394818D01*
X159559985Y-47371283D01*
X159543108Y-47349687D01*
X159521584Y-47332728D01*
X159498171Y-47322814D01*
X159472095Y-47319462D01*
X159434499Y-47326754D01*
X159401386Y-47349016D01*
X159384423Y-47370246D01*
X159374403Y-47393973D01*
X159370978Y-47421067D01*
X159269862Y-47421067D01*
X159276561Y-47367674D01*
X159296238Y-47320385D01*
X159329640Y-47277575D01*
X159372462Y-47244147D01*
X159419421Y-47224519D01*
X159472095Y-47217857D01*
X159524728Y-47224517D01*
X159571667Y-47244144D01*
X159614488Y-47277575D01*
X159647890Y-47320385D01*
X159667568Y-47367674D01*
X159674267Y-47421067D01*
X159674267Y-47522672D01*
X159876500Y-47522672D01*
X159876500Y-47421067D01*
X159977616Y-47421067D01*
X159977616Y-47522672D01*
X160078672Y-47522672D01*
X160105223Y-47519298D01*
X160128744Y-47509378D01*
X160150052Y-47492508D01*
X160172408Y-47459405D01*
X160179788Y-47421067D01*
X160172406Y-47382740D01*
X160150052Y-47349687D01*
X160128739Y-47332781D01*
X160105219Y-47322842D01*
X160078672Y-47319462D01*
X160052139Y-47322805D01*
X160028615Y-47332629D01*
X160007292Y-47349321D01*
X159990719Y-47370711D01*
X159980946Y-47394356D01*
X159977616Y-47421067D01*
X159876500Y-47421067D01*
X159883199Y-47367674D01*
X159902877Y-47320385D01*
X159936278Y-47277575D01*
X159979101Y-47244147D01*
X160026059Y-47224519D01*
X160078733Y-47217857D01*
X160131366Y-47224517D01*
G37*
G36*
X161578079Y-47858506D02*
G01*
X161507004Y-47930252D01*
X161140212Y-47563400D01*
X160773360Y-47930252D01*
X160701613Y-47858506D01*
X161140212Y-47420579D01*
X161578079Y-47858506D01*
G37*
G36*
X161763886Y-48230000D02*
G01*
X160516477Y-48230000D01*
X160516477Y-48128394D01*
X160617594Y-48128394D01*
X161662770Y-48128394D01*
X161662770Y-47319462D01*
X160617594Y-47319462D01*
X160617594Y-48128394D01*
X160516477Y-48128394D01*
X160516477Y-47217857D01*
X161763886Y-47217857D01*
X161763886Y-48230000D01*
G37*
G36*
X163400497Y-48074234D02*
G01*
X163779684Y-47823213D01*
X163862971Y-48017508D01*
X164156734Y-47823213D01*
X164238738Y-48017508D01*
X164532440Y-47823213D01*
X164654073Y-48109160D01*
X164575488Y-48144026D01*
X164494216Y-47949731D01*
X164199110Y-48144026D01*
X164117105Y-47949731D01*
X163824747Y-48144026D01*
X163742070Y-47949731D01*
X163446964Y-48144026D01*
X163400497Y-48074234D01*
G37*
G36*
X163401229Y-47550943D02*
G01*
X163780355Y-47299923D01*
X163863703Y-47494218D01*
X164157405Y-47299923D01*
X164239410Y-47494218D01*
X164533112Y-47299923D01*
X164654745Y-47585870D01*
X164576160Y-47620736D01*
X164494888Y-47426441D01*
X164199110Y-47620736D01*
X164117105Y-47426441D01*
X163824747Y-47620736D01*
X163742742Y-47426441D01*
X163447636Y-47620736D01*
X163401229Y-47550943D01*
G37*
G36*
X165741198Y-47299923D02*
G01*
X165025933Y-47299923D01*
X164891355Y-47432791D01*
X165510938Y-47432791D01*
X164891355Y-48052313D01*
X164986304Y-48147934D01*
X165606620Y-47528412D01*
X165606620Y-48147934D01*
X165741198Y-48012684D01*
X165741198Y-47299923D01*
G37*
G36*
X166584559Y-47199823D02*
G01*
X166626080Y-47215243D01*
X166661261Y-47240450D01*
X166688436Y-47273863D01*
X166704785Y-47312971D01*
X166710476Y-47359518D01*
X166703521Y-47414597D01*
X166682775Y-47465220D01*
X166647014Y-47512927D01*
X166593298Y-47558523D01*
X166517241Y-47602008D01*
X166413293Y-47642657D01*
X166439441Y-47709760D01*
X166490474Y-47823213D01*
X166533335Y-47756863D01*
X166576136Y-47705455D01*
X166618919Y-47666752D01*
X166661933Y-47638932D01*
X166708725Y-47618982D01*
X166767919Y-47603310D01*
X166842019Y-47592912D01*
X166933836Y-47589106D01*
X167150357Y-47589106D01*
X167288015Y-47585461D01*
X167369416Y-47576773D01*
X167412674Y-47565903D01*
X167439056Y-47551475D01*
X167457555Y-47531121D01*
X167469218Y-47503750D01*
X167473490Y-47467046D01*
X167469039Y-47435470D01*
X167456216Y-47409456D01*
X167434512Y-47387608D01*
X167401805Y-47369532D01*
X167500174Y-47273361D01*
X167536616Y-47312535D01*
X167557812Y-47356555D01*
X167565020Y-47407267D01*
X167560118Y-47450074D01*
X167545395Y-47490634D01*
X167520063Y-47529907D01*
X167482377Y-47568512D01*
X167429771Y-47606692D01*
X167360747Y-47642731D01*
X167285162Y-47668925D01*
X167201999Y-47685114D01*
X167110057Y-47690711D01*
X167058155Y-47690711D01*
X167010385Y-47784129D01*
X166949432Y-47872150D01*
X166874372Y-47955314D01*
X166783882Y-48033916D01*
X166676282Y-48108000D01*
X166757522Y-48189784D01*
X166842996Y-48256900D01*
X166933103Y-48310478D01*
X167029359Y-48351105D01*
X167123254Y-48374683D01*
X167215936Y-48382407D01*
X167278802Y-48377418D01*
X167332962Y-48363205D01*
X167379930Y-48340392D01*
X167420856Y-48308890D01*
X167454627Y-48269712D01*
X167478730Y-48225241D01*
X167493586Y-48174431D01*
X167498770Y-48115816D01*
X167491834Y-48063729D01*
X167472062Y-48021475D01*
X167439094Y-47986666D01*
X167390143Y-47958463D01*
X167500174Y-47855881D01*
X167537097Y-47878475D01*
X167565248Y-47906897D01*
X167585716Y-47941774D01*
X167598664Y-47984467D01*
X167603306Y-48036926D01*
X167597626Y-48103960D01*
X167580949Y-48165765D01*
X167553281Y-48223425D01*
X167513924Y-48277763D01*
X167461523Y-48329284D01*
X167402949Y-48371926D01*
X167339742Y-48405063D01*
X167271248Y-48429028D01*
X167196626Y-48443768D01*
X167114881Y-48448841D01*
X167042259Y-48444449D01*
X166969694Y-48431195D01*
X166896701Y-48408780D01*
X166822827Y-48376667D01*
X166730698Y-48322767D01*
X166643976Y-48255536D01*
X166562220Y-48173946D01*
X166485845Y-48208925D01*
X166408042Y-48233652D01*
X166328287Y-48248472D01*
X166245987Y-48253447D01*
X166182560Y-48248412D01*
X166127028Y-48233971D01*
X166078032Y-48210630D01*
X166034534Y-48178220D01*
X165998155Y-48137859D01*
X165972538Y-48093030D01*
X165956944Y-48042804D01*
X165951552Y-47985818D01*
X165955492Y-47941427D01*
X166094312Y-47941427D01*
X166098692Y-47991374D01*
X166111318Y-48035310D01*
X166131912Y-48074362D01*
X166160868Y-48109344D01*
X166196132Y-48138008D01*
X166235476Y-48158422D01*
X166279709Y-48170945D01*
X166329945Y-48175289D01*
X166385706Y-48170877D01*
X166450506Y-48156567D01*
X166526011Y-48130409D01*
X166462519Y-48043237D01*
X166401079Y-47939645D01*
X166364106Y-47863330D01*
X166510990Y-47863330D01*
X166578125Y-47976809D01*
X166646912Y-48075394D01*
X166731287Y-48020488D01*
X166803513Y-47955424D01*
X166864633Y-47879595D01*
X166915155Y-47791883D01*
X166955024Y-47690711D01*
X166875095Y-47690711D01*
X166788264Y-47696252D01*
X166714134Y-47711892D01*
X166650748Y-47736570D01*
X166596486Y-47769826D01*
X166550140Y-47811822D01*
X166510990Y-47863330D01*
X166364106Y-47863330D01*
X166341955Y-47817609D01*
X166285554Y-47674897D01*
X166223410Y-47709278D01*
X166175586Y-47747292D01*
X166139883Y-47788878D01*
X166114783Y-47834454D01*
X166099555Y-47884888D01*
X166094312Y-47941427D01*
X165955492Y-47941427D01*
X165956381Y-47931404D01*
X165970555Y-47881458D01*
X165994100Y-47835024D01*
X166027695Y-47791400D01*
X166082800Y-47741866D01*
X166162758Y-47689767D01*
X166273953Y-47635085D01*
X166248908Y-47551904D01*
X166241163Y-47478892D01*
X166246624Y-47425821D01*
X166251853Y-47409771D01*
X166360048Y-47409771D01*
X166368237Y-47487224D01*
X166398272Y-47603517D01*
X166464923Y-47569834D01*
X166515271Y-47533485D01*
X166552099Y-47494682D01*
X166577474Y-47453157D01*
X166592607Y-47408177D01*
X166597758Y-47358602D01*
X166594527Y-47320230D01*
X166585878Y-47291685D01*
X166572784Y-47270675D01*
X166554251Y-47254862D01*
X166529947Y-47244921D01*
X166498046Y-47241304D01*
X166461137Y-47246645D01*
X166428787Y-47262429D01*
X166399677Y-47289726D01*
X166377989Y-47323892D01*
X166364695Y-47363440D01*
X166360048Y-47409771D01*
X166251853Y-47409771D01*
X166262905Y-47375847D01*
X166290548Y-47327950D01*
X166330983Y-47281421D01*
X166378702Y-47242481D01*
X166428082Y-47215653D01*
X166479831Y-47199759D01*
X166534926Y-47194410D01*
X166584559Y-47199823D01*
G37*
G36*
X168363624Y-47199823D02*
G01*
X168405145Y-47215243D01*
X168440326Y-47240450D01*
X168467501Y-47273863D01*
X168483849Y-47312971D01*
X168489541Y-47359518D01*
X168482586Y-47414597D01*
X168461840Y-47465220D01*
X168426079Y-47512927D01*
X168372363Y-47558523D01*
X168296306Y-47602008D01*
X168192358Y-47642657D01*
X168218506Y-47709760D01*
X168269539Y-47823213D01*
X168312400Y-47756863D01*
X168355200Y-47705455D01*
X168397983Y-47666752D01*
X168440997Y-47638932D01*
X168487790Y-47618982D01*
X168546984Y-47603310D01*
X168621084Y-47592912D01*
X168712901Y-47589106D01*
X168929422Y-47589106D01*
X169067080Y-47585461D01*
X169148481Y-47576773D01*
X169191739Y-47565903D01*
X169218121Y-47551475D01*
X169236620Y-47531121D01*
X169248283Y-47503750D01*
X169252555Y-47467046D01*
X169248104Y-47435470D01*
X169235281Y-47409456D01*
X169213577Y-47387608D01*
X169180870Y-47369532D01*
X169279239Y-47273361D01*
X169315681Y-47312535D01*
X169336877Y-47356555D01*
X169344085Y-47407267D01*
X169339183Y-47450074D01*
X169324460Y-47490634D01*
X169299128Y-47529907D01*
X169261442Y-47568512D01*
X169208836Y-47606692D01*
X169139811Y-47642731D01*
X169064227Y-47668925D01*
X168981063Y-47685114D01*
X168889122Y-47690711D01*
X168837220Y-47690711D01*
X168789450Y-47784129D01*
X168728497Y-47872150D01*
X168653437Y-47955314D01*
X168562947Y-48033916D01*
X168455347Y-48108000D01*
X168536587Y-48189784D01*
X168622061Y-48256900D01*
X168712168Y-48310478D01*
X168808423Y-48351105D01*
X168902318Y-48374683D01*
X168995001Y-48382407D01*
X169057867Y-48377418D01*
X169112027Y-48363205D01*
X169158995Y-48340392D01*
X169199921Y-48308890D01*
X169233692Y-48269712D01*
X169257795Y-48225241D01*
X169272650Y-48174431D01*
X169277834Y-48115816D01*
X169270899Y-48063729D01*
X169251126Y-48021475D01*
X169218159Y-47986666D01*
X169169207Y-47958463D01*
X169279239Y-47855881D01*
X169316162Y-47878475D01*
X169344313Y-47906897D01*
X169364781Y-47941774D01*
X169377729Y-47984467D01*
X169382370Y-48036926D01*
X169376691Y-48103960D01*
X169360014Y-48165765D01*
X169332346Y-48223425D01*
X169292989Y-48277763D01*
X169240587Y-48329284D01*
X169182014Y-48371926D01*
X169118807Y-48405063D01*
X169050313Y-48429028D01*
X168975691Y-48443768D01*
X168893946Y-48448841D01*
X168821324Y-48444449D01*
X168748759Y-48431195D01*
X168675765Y-48408780D01*
X168601892Y-48376667D01*
X168509762Y-48322767D01*
X168423041Y-48255536D01*
X168341285Y-48173946D01*
X168264910Y-48208925D01*
X168187107Y-48233652D01*
X168107352Y-48248472D01*
X168025052Y-48253447D01*
X167961625Y-48248412D01*
X167906093Y-48233971D01*
X167857097Y-48210630D01*
X167813599Y-48178220D01*
X167777220Y-48137859D01*
X167751603Y-48093030D01*
X167736008Y-48042804D01*
X167730617Y-47985818D01*
X167734557Y-47941427D01*
X167873377Y-47941427D01*
X167877757Y-47991374D01*
X167890383Y-48035310D01*
X167910977Y-48074362D01*
X167939933Y-48109344D01*
X167975197Y-48138008D01*
X168014541Y-48158422D01*
X168058774Y-48170945D01*
X168109010Y-48175289D01*
X168164771Y-48170877D01*
X168229571Y-48156567D01*
X168305076Y-48130409D01*
X168241584Y-48043237D01*
X168180144Y-47939645D01*
X168143171Y-47863330D01*
X168290055Y-47863330D01*
X168357189Y-47976809D01*
X168425976Y-48075394D01*
X168510352Y-48020488D01*
X168582578Y-47955424D01*
X168643698Y-47879595D01*
X168694220Y-47791883D01*
X168734089Y-47690711D01*
X168654160Y-47690711D01*
X168567329Y-47696252D01*
X168493198Y-47711892D01*
X168429813Y-47736570D01*
X168375551Y-47769826D01*
X168329205Y-47811822D01*
X168290055Y-47863330D01*
X168143171Y-47863330D01*
X168121020Y-47817609D01*
X168064619Y-47674897D01*
X168002475Y-47709278D01*
X167954651Y-47747292D01*
X167918948Y-47788878D01*
X167893848Y-47834454D01*
X167878620Y-47884888D01*
X167873377Y-47941427D01*
X167734557Y-47941427D01*
X167735446Y-47931404D01*
X167749620Y-47881458D01*
X167773165Y-47835024D01*
X167806760Y-47791400D01*
X167861865Y-47741866D01*
X167941823Y-47689767D01*
X168053018Y-47635085D01*
X168027973Y-47551904D01*
X168020228Y-47478892D01*
X168025689Y-47425821D01*
X168030918Y-47409771D01*
X168139113Y-47409771D01*
X168147302Y-47487224D01*
X168177337Y-47603517D01*
X168243988Y-47569834D01*
X168294335Y-47533485D01*
X168331164Y-47494682D01*
X168356539Y-47453157D01*
X168371672Y-47408177D01*
X168376823Y-47358602D01*
X168373592Y-47320230D01*
X168364943Y-47291685D01*
X168351849Y-47270675D01*
X168333316Y-47254862D01*
X168309012Y-47244921D01*
X168277110Y-47241304D01*
X168240201Y-47246645D01*
X168207852Y-47262429D01*
X168178742Y-47289726D01*
X168157054Y-47323892D01*
X168143760Y-47363440D01*
X168139113Y-47409771D01*
X168030918Y-47409771D01*
X168041970Y-47375847D01*
X168069613Y-47327950D01*
X168110048Y-47281421D01*
X168157767Y-47242481D01*
X168207147Y-47215653D01*
X168258895Y-47199759D01*
X168313991Y-47194410D01*
X168363624Y-47199823D01*
G37*
G36*
X169858033Y-47737606D02*
G01*
X169851995Y-47820177D01*
X169833215Y-47908073D01*
X169800331Y-48002365D01*
X169757248Y-48092533D01*
X169705522Y-48176052D01*
X169644931Y-48253447D01*
X169534900Y-48253447D01*
X169605699Y-48170063D01*
X169661639Y-48086320D01*
X169704041Y-48001807D01*
X169733864Y-47915976D01*
X169751679Y-47828163D01*
X169757650Y-47737606D01*
X169542472Y-47737606D01*
X169542472Y-47663356D01*
X169757650Y-47663356D01*
X169745211Y-47571294D01*
X169718028Y-47479263D01*
X169675089Y-47386300D01*
X169614774Y-47291574D01*
X169534900Y-47194410D01*
X169639436Y-47194410D01*
X169710534Y-47279963D01*
X169767174Y-47369012D01*
X169810338Y-47462085D01*
X169840585Y-47559903D01*
X169858033Y-47663356D01*
X170067105Y-47663356D01*
X170084573Y-47559901D01*
X170114831Y-47462080D01*
X170157997Y-47369007D01*
X170214628Y-47279959D01*
X170285703Y-47194410D01*
X170390177Y-47194410D01*
X170310329Y-47291571D01*
X170250031Y-47386296D01*
X170207103Y-47479259D01*
X170179926Y-47571292D01*
X170167489Y-47663356D01*
X170382667Y-47663356D01*
X170382667Y-47737606D01*
X170167489Y-47737606D01*
X170173458Y-47828166D01*
X170191269Y-47915980D01*
X170221085Y-48001811D01*
X170263476Y-48086324D01*
X170319400Y-48170066D01*
X170390177Y-48253447D01*
X170280207Y-48253447D01*
X170219617Y-48176052D01*
X170167891Y-48092533D01*
X170124808Y-48002365D01*
X170091924Y-47908073D01*
X170073143Y-47820177D01*
X170067105Y-47737606D01*
X169858033Y-47737606D01*
G37*
G36*
X171637220Y-48230000D02*
G01*
X170626177Y-48230000D01*
X170626177Y-48026789D01*
X170828410Y-48026789D01*
X171434987Y-48026789D01*
X171434987Y-47421067D01*
X170828410Y-47421067D01*
X170828410Y-48026789D01*
X170626177Y-48026789D01*
X170626177Y-47217857D01*
X171637220Y-47217857D01*
X171637220Y-48230000D01*
G37*
G36*
X172722636Y-47299923D02*
G01*
X172007370Y-47299923D01*
X171872793Y-47432791D01*
X172492376Y-47432791D01*
X171872793Y-48052313D01*
X171967742Y-48147934D01*
X172588058Y-47528412D01*
X172588058Y-48147934D01*
X172722636Y-48012684D01*
X172722636Y-47299923D01*
G37*
G36*
X172958208Y-48128394D02*
G01*
X172958208Y-48026789D01*
X174045088Y-48026789D01*
X174045088Y-48128394D01*
X172958208Y-48128394D01*
G37*
G36*
X173387892Y-47728813D02*
G01*
X173387892Y-47823579D01*
X172958208Y-47823579D01*
X172958208Y-47721974D01*
X173259481Y-47721974D01*
X173222677Y-47677066D01*
X173197427Y-47630992D01*
X173182532Y-47583104D01*
X173177538Y-47532503D01*
X173183588Y-47469310D01*
X173201350Y-47411608D01*
X173230968Y-47358144D01*
X173273525Y-47308044D01*
X173324441Y-47266449D01*
X173378852Y-47237386D01*
X173437635Y-47219909D01*
X173502015Y-47213949D01*
X173566394Y-47219909D01*
X173625177Y-47237386D01*
X173679588Y-47266449D01*
X173730504Y-47308044D01*
X173773061Y-47358144D01*
X173802679Y-47411608D01*
X173820441Y-47469310D01*
X173826491Y-47532503D01*
X173821494Y-47583101D01*
X173806589Y-47630987D01*
X173781321Y-47677062D01*
X173744487Y-47721974D01*
X174045088Y-47721974D01*
X174045088Y-47823579D01*
X173615404Y-47823579D01*
X173615404Y-47728813D01*
X173664895Y-47688666D01*
X173698528Y-47644102D01*
X173718521Y-47594222D01*
X173725375Y-47537266D01*
X173717998Y-47479588D01*
X173696242Y-47428124D01*
X173659124Y-47381133D01*
X173611723Y-47344408D01*
X173559923Y-47322859D01*
X173502015Y-47315554D01*
X173443633Y-47322886D01*
X173391704Y-47344459D01*
X173344478Y-47381133D01*
X173307581Y-47428098D01*
X173285936Y-47479563D01*
X173278593Y-47537266D01*
X173285415Y-47594264D01*
X173305308Y-47644159D01*
X173338743Y-47688707D01*
X173387892Y-47728813D01*
G37*
G36*
X174605137Y-47737606D02*
G01*
X174599099Y-47820177D01*
X174580319Y-47908073D01*
X174547435Y-48002365D01*
X174504352Y-48092533D01*
X174452626Y-48176052D01*
X174392035Y-48253447D01*
X174282004Y-48253447D01*
X174352803Y-48170063D01*
X174408743Y-48086320D01*
X174451145Y-48001807D01*
X174480968Y-47915976D01*
X174498783Y-47828163D01*
X174504754Y-47737606D01*
X174289576Y-47737606D01*
X174289576Y-47663356D01*
X174504754Y-47663356D01*
X174492315Y-47571294D01*
X174465131Y-47479263D01*
X174422193Y-47386300D01*
X174361878Y-47291574D01*
X174282004Y-47194410D01*
X174386540Y-47194410D01*
X174457638Y-47279963D01*
X174514278Y-47369012D01*
X174557442Y-47462085D01*
X174587689Y-47559903D01*
X174605137Y-47663356D01*
X174814209Y-47663356D01*
X174831677Y-47559901D01*
X174861935Y-47462080D01*
X174905101Y-47369007D01*
X174961732Y-47279959D01*
X175032807Y-47194410D01*
X175137281Y-47194410D01*
X175057433Y-47291571D01*
X174997135Y-47386296D01*
X174954207Y-47479259D01*
X174927030Y-47571292D01*
X174914593Y-47663356D01*
X175129771Y-47663356D01*
X175129771Y-47737606D01*
X174914593Y-47737606D01*
X174920562Y-47828166D01*
X174938373Y-47915980D01*
X174968189Y-48001811D01*
X175010580Y-48086324D01*
X175066504Y-48170066D01*
X175137281Y-48253447D01*
X175027311Y-48253447D01*
X174966721Y-48176052D01*
X174914995Y-48092533D01*
X174871912Y-48002365D01*
X174839028Y-47908073D01*
X174820247Y-47820177D01*
X174814209Y-47737606D01*
X174605137Y-47737606D01*
G37*
G36*
X177834883Y-47858506D02*
G01*
X177763808Y-47930252D01*
X177397016Y-47563400D01*
X177030163Y-47930252D01*
X176958417Y-47858506D01*
X177397016Y-47420579D01*
X177834883Y-47858506D01*
G37*
G36*
X178020690Y-48230000D02*
G01*
X176773281Y-48230000D01*
X176773281Y-48128394D01*
X176874398Y-48128394D01*
X177919574Y-48128394D01*
X177919574Y-47319462D01*
X176874398Y-47319462D01*
X176874398Y-48128394D01*
X176773281Y-48128394D01*
X176773281Y-47217857D01*
X178020690Y-47217857D01*
X178020690Y-48230000D01*
G37*
G36*
X178789815Y-47221698D02*
G01*
X178850416Y-47233557D01*
X178914497Y-47254127D01*
X179060676Y-47314272D01*
X179124290Y-47346189D01*
X179180651Y-47385812D01*
X179230462Y-47433437D01*
X179274145Y-47489699D01*
X179309439Y-47551583D01*
X179334371Y-47615821D01*
X179349369Y-47683048D01*
X179354439Y-47754031D01*
X179348716Y-47831726D01*
X179331972Y-47903303D01*
X179304427Y-47969822D01*
X179265743Y-48032135D01*
X179215038Y-48090842D01*
X179156264Y-48141465D01*
X179093920Y-48180084D01*
X179027409Y-48207579D01*
X178955882Y-48224289D01*
X178878288Y-48230000D01*
X178817030Y-48225991D01*
X178756842Y-48213966D01*
X178697243Y-48193729D01*
X178551064Y-48132913D01*
X178487464Y-48101302D01*
X178431100Y-48061898D01*
X178381265Y-48014400D01*
X178337534Y-47958157D01*
X178302269Y-47896276D01*
X178277355Y-47832040D01*
X178262367Y-47764811D01*
X178257772Y-47700420D01*
X178320865Y-47700420D01*
X178325799Y-47765372D01*
X178340281Y-47825581D01*
X178364207Y-47881927D01*
X178397969Y-47935115D01*
X178442437Y-47985635D01*
X178493710Y-48029122D01*
X178547786Y-48062255D01*
X178605164Y-48085800D01*
X178666541Y-48100078D01*
X178732780Y-48104947D01*
X178799608Y-48100020D01*
X178861317Y-48085589D01*
X178918806Y-48061824D01*
X178972795Y-48028417D01*
X179023796Y-47984596D01*
X179067828Y-47933785D01*
X179101384Y-47879962D01*
X179125252Y-47822614D01*
X179139746Y-47761014D01*
X179144696Y-47694253D01*
X179139755Y-47627815D01*
X179125278Y-47566441D01*
X179101423Y-47509233D01*
X179067862Y-47455469D01*
X179023796Y-47404642D01*
X178972795Y-47360822D01*
X178918806Y-47327415D01*
X178861317Y-47303650D01*
X178799608Y-47289219D01*
X178732780Y-47284291D01*
X178664768Y-47289286D01*
X178602382Y-47303871D01*
X178544669Y-47327817D01*
X178490862Y-47361384D01*
X178440422Y-47405314D01*
X178397096Y-47456237D01*
X178363934Y-47510564D01*
X178340248Y-47568834D01*
X178325810Y-47631807D01*
X178320865Y-47700420D01*
X178257772Y-47700420D01*
X178257301Y-47693825D01*
X178262999Y-47616445D01*
X178279682Y-47545048D01*
X178307145Y-47478590D01*
X178345735Y-47416232D01*
X178396336Y-47357381D01*
X178455021Y-47306588D01*
X178517225Y-47267865D01*
X178583543Y-47240312D01*
X178654821Y-47223575D01*
X178732109Y-47217857D01*
X178789815Y-47221698D01*
G37*
G36*
X180601910Y-48230000D02*
G01*
X179590867Y-48230000D01*
X179590867Y-48026789D01*
X179793100Y-48026789D01*
X180399677Y-48026789D01*
X180399677Y-47421067D01*
X179793100Y-47421067D01*
X179793100Y-48026789D01*
X179590867Y-48026789D01*
X179590867Y-47217857D01*
X180601910Y-47217857D01*
X180601910Y-48230000D01*
G37*
G36*
X181899084Y-47858506D02*
G01*
X181828009Y-47930252D01*
X181461217Y-47563400D01*
X181094364Y-47930252D01*
X181022618Y-47858506D01*
X181461217Y-47420579D01*
X181899084Y-47858506D01*
G37*
G36*
X182084891Y-48230000D02*
G01*
X180837482Y-48230000D01*
X180837482Y-48128394D01*
X180938599Y-48128394D01*
X181983775Y-48128394D01*
X181983775Y-47319462D01*
X180938599Y-47319462D01*
X180938599Y-48128394D01*
X180837482Y-48128394D01*
X180837482Y-47217857D01*
X182084891Y-47217857D01*
X182084891Y-48230000D01*
G37*
G36*
X183332545Y-48096521D02*
G01*
X183197967Y-48230000D01*
X182321502Y-48230000D01*
X182321502Y-47421067D01*
X182388485Y-47421067D01*
X182389157Y-48163565D01*
X183130312Y-48163565D01*
X183130312Y-47421067D01*
X182388485Y-47421067D01*
X182321502Y-47421067D01*
X182321502Y-47353107D01*
X182456079Y-47217857D01*
X183332545Y-47217857D01*
X183332545Y-48096521D01*
G37*
G36*
X184417960Y-47299923D02*
G01*
X183702695Y-47299923D01*
X183568117Y-47432791D01*
X184187700Y-47432791D01*
X183568117Y-48052313D01*
X183663066Y-48147934D01*
X184283382Y-47528412D01*
X184283382Y-48147934D01*
X184417960Y-48012684D01*
X184417960Y-47299923D01*
G37*
G36*
X184653532Y-47723928D02*
G01*
X184658388Y-47658176D01*
X184672605Y-47597510D01*
X184696010Y-47541041D01*
X184728905Y-47488053D01*
X184772051Y-47438042D01*
X184822065Y-47394872D01*
X184875054Y-47361959D01*
X184931523Y-47338543D01*
X184992187Y-47324320D01*
X185057937Y-47319462D01*
X185123707Y-47324318D01*
X185184422Y-47338537D01*
X185240966Y-47361952D01*
X185294055Y-47394866D01*
X185344190Y-47438042D01*
X185387483Y-47488072D01*
X185420481Y-47541069D01*
X185443952Y-47597536D01*
X185458207Y-47658192D01*
X185463075Y-47723928D01*
X185458208Y-47789663D01*
X185443954Y-47850325D01*
X185420483Y-47906806D01*
X185387485Y-47959821D01*
X185344190Y-48009876D01*
X185294058Y-48053027D01*
X185240971Y-48085924D01*
X185184426Y-48109328D01*
X185123710Y-48123541D01*
X185057937Y-48128394D01*
X184992185Y-48123539D01*
X184931519Y-48109322D01*
X184875050Y-48085917D01*
X184822062Y-48053021D01*
X184772051Y-48009876D01*
X184728904Y-47959840D01*
X184696008Y-47906834D01*
X184672603Y-47850352D01*
X184658387Y-47789680D01*
X184653532Y-47723928D01*
G37*
G36*
X185697915Y-47723928D02*
G01*
X185702770Y-47658176D01*
X185716987Y-47597510D01*
X185740392Y-47541041D01*
X185773288Y-47488053D01*
X185816434Y-47438042D01*
X185866448Y-47394872D01*
X185919437Y-47361959D01*
X185975906Y-47338543D01*
X186036570Y-47324320D01*
X186102320Y-47319462D01*
X186168090Y-47324318D01*
X186228804Y-47338537D01*
X186285349Y-47361952D01*
X186338437Y-47394866D01*
X186388572Y-47438042D01*
X186431866Y-47488072D01*
X186464863Y-47541069D01*
X186488335Y-47597536D01*
X186502589Y-47658192D01*
X186507458Y-47723928D01*
X186502590Y-47789663D01*
X186488337Y-47850325D01*
X186464865Y-47906806D01*
X186431867Y-47959821D01*
X186388572Y-48009876D01*
X186338440Y-48053027D01*
X186285353Y-48085924D01*
X186228809Y-48109328D01*
X186168093Y-48123541D01*
X186102320Y-48128394D01*
X186036567Y-48123539D01*
X185975901Y-48109322D01*
X185919432Y-48085917D01*
X185866444Y-48053021D01*
X185816434Y-48009876D01*
X185773286Y-47959840D01*
X185740390Y-47906834D01*
X185716986Y-47850352D01*
X185702770Y-47789680D01*
X185697915Y-47723928D01*
G37*
G36*
X187592140Y-47299923D02*
G01*
X186876875Y-47299923D01*
X186742297Y-47432791D01*
X187361880Y-47432791D01*
X186742297Y-48052313D01*
X186837247Y-48147934D01*
X187457562Y-47528412D01*
X187457562Y-48147934D01*
X187592140Y-48012684D01*
X187592140Y-47299923D01*
G37*
X166203884Y-45172419D02*
X166203884Y-44505752D01*
X166203884Y-44696228D02*
X166251503Y-44600990D01*
X166251503Y-44600990D02*
X166299122Y-44553371D01*
X166299122Y-44553371D02*
X166394360Y-44505752D01*
X166394360Y-44505752D02*
X166489598Y-44505752D01*
X167203884Y-45124800D02*
X167108646Y-45172419D01*
X167108646Y-45172419D02*
X166918170Y-45172419D01*
X166918170Y-45172419D02*
X166822932Y-45124800D01*
X166822932Y-45124800D02*
X166775313Y-45029561D01*
X166775313Y-45029561D02*
X166775313Y-44648609D01*
X166775313Y-44648609D02*
X166822932Y-44553371D01*
X166822932Y-44553371D02*
X166918170Y-44505752D01*
X166918170Y-44505752D02*
X167108646Y-44505752D01*
X167108646Y-44505752D02*
X167203884Y-44553371D01*
X167203884Y-44553371D02*
X167251503Y-44648609D01*
X167251503Y-44648609D02*
X167251503Y-44743847D01*
X167251503Y-44743847D02*
X166775313Y-44839085D01*
X167680075Y-44505752D02*
X167680075Y-45172419D01*
X167680075Y-44600990D02*
X167727694Y-44553371D01*
X167727694Y-44553371D02*
X167822932Y-44505752D01*
X167822932Y-44505752D02*
X167965789Y-44505752D01*
X167965789Y-44505752D02*
X168061027Y-44553371D01*
X168061027Y-44553371D02*
X168108646Y-44648609D01*
X168108646Y-44648609D02*
X168108646Y-45172419D01*
X168965789Y-45124800D02*
X168870551Y-45172419D01*
X168870551Y-45172419D02*
X168680075Y-45172419D01*
X168680075Y-45172419D02*
X168584837Y-45124800D01*
X168584837Y-45124800D02*
X168537218Y-45029561D01*
X168537218Y-45029561D02*
X168537218Y-44648609D01*
X168537218Y-44648609D02*
X168584837Y-44553371D01*
X168584837Y-44553371D02*
X168680075Y-44505752D01*
X168680075Y-44505752D02*
X168870551Y-44505752D01*
X168870551Y-44505752D02*
X168965789Y-44553371D01*
X168965789Y-44553371D02*
X169013408Y-44648609D01*
X169013408Y-44648609D02*
X169013408Y-44743847D01*
X169013408Y-44743847D02*
X168537218Y-44839085D01*
X170156266Y-45124800D02*
X170251504Y-45172419D01*
X170251504Y-45172419D02*
X170441980Y-45172419D01*
X170441980Y-45172419D02*
X170537218Y-45124800D01*
X170537218Y-45124800D02*
X170584837Y-45029561D01*
X170584837Y-45029561D02*
X170584837Y-44981942D01*
X170584837Y-44981942D02*
X170537218Y-44886704D01*
X170537218Y-44886704D02*
X170441980Y-44839085D01*
X170441980Y-44839085D02*
X170299123Y-44839085D01*
X170299123Y-44839085D02*
X170203885Y-44791466D01*
X170203885Y-44791466D02*
X170156266Y-44696228D01*
X170156266Y-44696228D02*
X170156266Y-44648609D01*
X170156266Y-44648609D02*
X170203885Y-44553371D01*
X170203885Y-44553371D02*
X170299123Y-44505752D01*
X170299123Y-44505752D02*
X170441980Y-44505752D01*
X170441980Y-44505752D02*
X170537218Y-44553371D01*
X171441980Y-45172419D02*
X171441980Y-44648609D01*
X171441980Y-44648609D02*
X171394361Y-44553371D01*
X171394361Y-44553371D02*
X171299123Y-44505752D01*
X171299123Y-44505752D02*
X171108647Y-44505752D01*
X171108647Y-44505752D02*
X171013409Y-44553371D01*
X171441980Y-45124800D02*
X171346742Y-45172419D01*
X171346742Y-45172419D02*
X171108647Y-45172419D01*
X171108647Y-45172419D02*
X171013409Y-45124800D01*
X171013409Y-45124800D02*
X170965790Y-45029561D01*
X170965790Y-45029561D02*
X170965790Y-44934323D01*
X170965790Y-44934323D02*
X171013409Y-44839085D01*
X171013409Y-44839085D02*
X171108647Y-44791466D01*
X171108647Y-44791466D02*
X171346742Y-44791466D01*
X171346742Y-44791466D02*
X171441980Y-44743847D01*
X172346742Y-45172419D02*
X172346742Y-44648609D01*
X172346742Y-44648609D02*
X172299123Y-44553371D01*
X172299123Y-44553371D02*
X172203885Y-44505752D01*
X172203885Y-44505752D02*
X172013409Y-44505752D01*
X172013409Y-44505752D02*
X171918171Y-44553371D01*
X172346742Y-45124800D02*
X172251504Y-45172419D01*
X172251504Y-45172419D02*
X172013409Y-45172419D01*
X172013409Y-45172419D02*
X171918171Y-45124800D01*
X171918171Y-45124800D02*
X171870552Y-45029561D01*
X171870552Y-45029561D02*
X171870552Y-44934323D01*
X171870552Y-44934323D02*
X171918171Y-44839085D01*
X171918171Y-44839085D02*
X172013409Y-44791466D01*
X172013409Y-44791466D02*
X172251504Y-44791466D01*
X172251504Y-44791466D02*
X172346742Y-44743847D01*
X172822933Y-45172419D02*
X172822933Y-44505752D01*
X172822933Y-44696228D02*
X172870552Y-44600990D01*
X172870552Y-44600990D02*
X172918171Y-44553371D01*
X172918171Y-44553371D02*
X173013409Y-44505752D01*
X173013409Y-44505752D02*
X173108647Y-44505752D01*
X173441981Y-45172419D02*
X173441981Y-44505752D01*
X173441981Y-44172419D02*
X173394362Y-44220038D01*
X173394362Y-44220038D02*
X173441981Y-44267657D01*
X173441981Y-44267657D02*
X173489600Y-44220038D01*
X173489600Y-44220038D02*
X173441981Y-44172419D01*
X173441981Y-44172419D02*
X173441981Y-44267657D01*
X173918171Y-45172419D02*
X173918171Y-44172419D01*
X174013409Y-44791466D02*
X174299123Y-45172419D01*
X174299123Y-44505752D02*
X173918171Y-44886704D01*
X174727695Y-45172419D02*
X174727695Y-44172419D01*
X174822933Y-44791466D02*
X175108647Y-45172419D01*
X175108647Y-44505752D02*
X174727695Y-44886704D01*
X175680076Y-45172419D02*
X175584838Y-45124800D01*
X175584838Y-45124800D02*
X175537219Y-45077180D01*
X175537219Y-45077180D02*
X175489600Y-44981942D01*
X175489600Y-44981942D02*
X175489600Y-44696228D01*
X175489600Y-44696228D02*
X175537219Y-44600990D01*
X175537219Y-44600990D02*
X175584838Y-44553371D01*
X175584838Y-44553371D02*
X175680076Y-44505752D01*
X175680076Y-44505752D02*
X175822933Y-44505752D01*
X175822933Y-44505752D02*
X175918171Y-44553371D01*
X175918171Y-44553371D02*
X175965790Y-44600990D01*
X175965790Y-44600990D02*
X176013409Y-44696228D01*
X176013409Y-44696228D02*
X176013409Y-44981942D01*
X176013409Y-44981942D02*
X175965790Y-45077180D01*
X175965790Y-45077180D02*
X175918171Y-45124800D01*
X175918171Y-45124800D02*
X175822933Y-45172419D01*
X175822933Y-45172419D02*
X175680076Y-45172419D01*
X135008646Y-55072419D02*
X135532455Y-54405752D01*
X135008646Y-54405752D02*
X135532455Y-55072419D01*
X135913408Y-55072419D02*
X135913408Y-54405752D01*
X135913408Y-54072419D02*
X135865789Y-54120038D01*
X135865789Y-54120038D02*
X135913408Y-54167657D01*
X135913408Y-54167657D02*
X135961027Y-54120038D01*
X135961027Y-54120038D02*
X135913408Y-54072419D01*
X135913408Y-54072419D02*
X135913408Y-54167657D01*
X136818169Y-55072419D02*
X136818169Y-54548609D01*
X136818169Y-54548609D02*
X136770550Y-54453371D01*
X136770550Y-54453371D02*
X136675312Y-54405752D01*
X136675312Y-54405752D02*
X136484836Y-54405752D01*
X136484836Y-54405752D02*
X136389598Y-54453371D01*
X136818169Y-55024800D02*
X136722931Y-55072419D01*
X136722931Y-55072419D02*
X136484836Y-55072419D01*
X136484836Y-55072419D02*
X136389598Y-55024800D01*
X136389598Y-55024800D02*
X136341979Y-54929561D01*
X136341979Y-54929561D02*
X136341979Y-54834323D01*
X136341979Y-54834323D02*
X136389598Y-54739085D01*
X136389598Y-54739085D02*
X136484836Y-54691466D01*
X136484836Y-54691466D02*
X136722931Y-54691466D01*
X136722931Y-54691466D02*
X136818169Y-54643847D01*
X137437217Y-55072419D02*
X137341979Y-55024800D01*
X137341979Y-55024800D02*
X137294360Y-54977180D01*
X137294360Y-54977180D02*
X137246741Y-54881942D01*
X137246741Y-54881942D02*
X137246741Y-54596228D01*
X137246741Y-54596228D02*
X137294360Y-54500990D01*
X137294360Y-54500990D02*
X137341979Y-54453371D01*
X137341979Y-54453371D02*
X137437217Y-54405752D01*
X137437217Y-54405752D02*
X137580074Y-54405752D01*
X137580074Y-54405752D02*
X137675312Y-54453371D01*
X137675312Y-54453371D02*
X137722931Y-54500990D01*
X137722931Y-54500990D02*
X137770550Y-54596228D01*
X137770550Y-54596228D02*
X137770550Y-54881942D01*
X137770550Y-54881942D02*
X137722931Y-54977180D01*
X137722931Y-54977180D02*
X137675312Y-55024800D01*
X137675312Y-55024800D02*
X137580074Y-55072419D01*
X137580074Y-55072419D02*
X137437217Y-55072419D01*
X138961027Y-55072419D02*
X138961027Y-54072419D01*
X139389598Y-55072419D02*
X139389598Y-54548609D01*
X139389598Y-54548609D02*
X139341979Y-54453371D01*
X139341979Y-54453371D02*
X139246741Y-54405752D01*
X139246741Y-54405752D02*
X139103884Y-54405752D01*
X139103884Y-54405752D02*
X139008646Y-54453371D01*
X139008646Y-54453371D02*
X138961027Y-54500990D01*
X140246741Y-55024800D02*
X140151503Y-55072419D01*
X140151503Y-55072419D02*
X139961027Y-55072419D01*
X139961027Y-55072419D02*
X139865789Y-55024800D01*
X139865789Y-55024800D02*
X139818170Y-54929561D01*
X139818170Y-54929561D02*
X139818170Y-54548609D01*
X139818170Y-54548609D02*
X139865789Y-54453371D01*
X139865789Y-54453371D02*
X139961027Y-54405752D01*
X139961027Y-54405752D02*
X140151503Y-54405752D01*
X140151503Y-54405752D02*
X140246741Y-54453371D01*
X140246741Y-54453371D02*
X140294360Y-54548609D01*
X140294360Y-54548609D02*
X140294360Y-54643847D01*
X140294360Y-54643847D02*
X139818170Y-54739085D01*
X140722932Y-55072419D02*
X140722932Y-54405752D01*
X140722932Y-54596228D02*
X140770551Y-54500990D01*
X140770551Y-54500990D02*
X140818170Y-54453371D01*
X140818170Y-54453371D02*
X140913408Y-54405752D01*
X140913408Y-54405752D02*
X141008646Y-54405752D01*
X141722932Y-55024800D02*
X141627694Y-55072419D01*
X141627694Y-55072419D02*
X141437218Y-55072419D01*
X141437218Y-55072419D02*
X141341980Y-55024800D01*
X141341980Y-55024800D02*
X141294361Y-54929561D01*
X141294361Y-54929561D02*
X141294361Y-54548609D01*
X141294361Y-54548609D02*
X141341980Y-54453371D01*
X141341980Y-54453371D02*
X141437218Y-54405752D01*
X141437218Y-54405752D02*
X141627694Y-54405752D01*
X141627694Y-54405752D02*
X141722932Y-54453371D01*
X141722932Y-54453371D02*
X141770551Y-54548609D01*
X141770551Y-54548609D02*
X141770551Y-54643847D01*
X141770551Y-54643847D02*
X141294361Y-54739085D01*
D11*
X132466667Y-72407200D02*
X132609524Y-72454819D01*
X132609524Y-72454819D02*
X132847619Y-72454819D01*
X132847619Y-72454819D02*
X132942857Y-72407200D01*
X132942857Y-72407200D02*
X132990476Y-72359580D01*
X132990476Y-72359580D02*
X133038095Y-72264342D01*
X133038095Y-72264342D02*
X133038095Y-72169104D01*
X133038095Y-72169104D02*
X132990476Y-72073866D01*
X132990476Y-72073866D02*
X132942857Y-72026247D01*
X132942857Y-72026247D02*
X132847619Y-71978628D01*
X132847619Y-71978628D02*
X132657143Y-71931009D01*
X132657143Y-71931009D02*
X132561905Y-71883390D01*
X132561905Y-71883390D02*
X132514286Y-71835771D01*
X132514286Y-71835771D02*
X132466667Y-71740533D01*
X132466667Y-71740533D02*
X132466667Y-71645295D01*
X132466667Y-71645295D02*
X132514286Y-71550057D01*
X132514286Y-71550057D02*
X132561905Y-71502438D01*
X132561905Y-71502438D02*
X132657143Y-71454819D01*
X132657143Y-71454819D02*
X132895238Y-71454819D01*
X132895238Y-71454819D02*
X133038095Y-71502438D01*
X133371429Y-71454819D02*
X133609524Y-72454819D01*
X133609524Y-72454819D02*
X133800000Y-71740533D01*
X133800000Y-71740533D02*
X133990476Y-72454819D01*
X133990476Y-72454819D02*
X134228572Y-71454819D01*
X135085714Y-71454819D02*
X134609524Y-71454819D01*
X134609524Y-71454819D02*
X134561905Y-71931009D01*
X134561905Y-71931009D02*
X134609524Y-71883390D01*
X134609524Y-71883390D02*
X134704762Y-71835771D01*
X134704762Y-71835771D02*
X134942857Y-71835771D01*
X134942857Y-71835771D02*
X135038095Y-71883390D01*
X135038095Y-71883390D02*
X135085714Y-71931009D01*
X135085714Y-71931009D02*
X135133333Y-72026247D01*
X135133333Y-72026247D02*
X135133333Y-72264342D01*
X135133333Y-72264342D02*
X135085714Y-72359580D01*
X135085714Y-72359580D02*
X135038095Y-72407200D01*
X135038095Y-72407200D02*
X134942857Y-72454819D01*
X134942857Y-72454819D02*
X134704762Y-72454819D01*
X134704762Y-72454819D02*
X134609524Y-72407200D01*
X134609524Y-72407200D02*
X134561905Y-72359580D01*
X159886667Y-52233200D02*
X160029524Y-52280819D01*
X160029524Y-52280819D02*
X160267619Y-52280819D01*
X160267619Y-52280819D02*
X160362857Y-52233200D01*
X160362857Y-52233200D02*
X160410476Y-52185580D01*
X160410476Y-52185580D02*
X160458095Y-52090342D01*
X160458095Y-52090342D02*
X160458095Y-51995104D01*
X160458095Y-51995104D02*
X160410476Y-51899866D01*
X160410476Y-51899866D02*
X160362857Y-51852247D01*
X160362857Y-51852247D02*
X160267619Y-51804628D01*
X160267619Y-51804628D02*
X160077143Y-51757009D01*
X160077143Y-51757009D02*
X159981905Y-51709390D01*
X159981905Y-51709390D02*
X159934286Y-51661771D01*
X159934286Y-51661771D02*
X159886667Y-51566533D01*
X159886667Y-51566533D02*
X159886667Y-51471295D01*
X159886667Y-51471295D02*
X159934286Y-51376057D01*
X159934286Y-51376057D02*
X159981905Y-51328438D01*
X159981905Y-51328438D02*
X160077143Y-51280819D01*
X160077143Y-51280819D02*
X160315238Y-51280819D01*
X160315238Y-51280819D02*
X160458095Y-51328438D01*
X160791429Y-51280819D02*
X161029524Y-52280819D01*
X161029524Y-52280819D02*
X161220000Y-51566533D01*
X161220000Y-51566533D02*
X161410476Y-52280819D01*
X161410476Y-52280819D02*
X161648572Y-51280819D01*
X162458095Y-51614152D02*
X162458095Y-52280819D01*
X162220000Y-51233200D02*
X161981905Y-51947485D01*
X161981905Y-51947485D02*
X162600952Y-51947485D01*
D12*
X129416190Y-40621979D02*
X129416190Y-41136026D01*
X129416190Y-41136026D02*
X129446428Y-41196502D01*
X129446428Y-41196502D02*
X129476666Y-41226741D01*
X129476666Y-41226741D02*
X129537142Y-41256979D01*
X129537142Y-41256979D02*
X129658095Y-41256979D01*
X129658095Y-41256979D02*
X129718571Y-41226741D01*
X129718571Y-41226741D02*
X129748809Y-41196502D01*
X129748809Y-41196502D02*
X129779047Y-41136026D01*
X129779047Y-41136026D02*
X129779047Y-40621979D01*
X130414047Y-41256979D02*
X130051190Y-41256979D01*
X130232618Y-41256979D02*
X130232618Y-40621979D01*
X130232618Y-40621979D02*
X130172142Y-40712693D01*
X130172142Y-40712693D02*
X130111666Y-40773169D01*
X130111666Y-40773169D02*
X130051190Y-40803407D01*
D11*
X178966667Y-71333200D02*
X179109524Y-71380819D01*
X179109524Y-71380819D02*
X179347619Y-71380819D01*
X179347619Y-71380819D02*
X179442857Y-71333200D01*
X179442857Y-71333200D02*
X179490476Y-71285580D01*
X179490476Y-71285580D02*
X179538095Y-71190342D01*
X179538095Y-71190342D02*
X179538095Y-71095104D01*
X179538095Y-71095104D02*
X179490476Y-70999866D01*
X179490476Y-70999866D02*
X179442857Y-70952247D01*
X179442857Y-70952247D02*
X179347619Y-70904628D01*
X179347619Y-70904628D02*
X179157143Y-70857009D01*
X179157143Y-70857009D02*
X179061905Y-70809390D01*
X179061905Y-70809390D02*
X179014286Y-70761771D01*
X179014286Y-70761771D02*
X178966667Y-70666533D01*
X178966667Y-70666533D02*
X178966667Y-70571295D01*
X178966667Y-70571295D02*
X179014286Y-70476057D01*
X179014286Y-70476057D02*
X179061905Y-70428438D01*
X179061905Y-70428438D02*
X179157143Y-70380819D01*
X179157143Y-70380819D02*
X179395238Y-70380819D01*
X179395238Y-70380819D02*
X179538095Y-70428438D01*
X179871429Y-70380819D02*
X180109524Y-71380819D01*
X180109524Y-71380819D02*
X180300000Y-70666533D01*
X180300000Y-70666533D02*
X180490476Y-71380819D01*
X180490476Y-71380819D02*
X180728572Y-70380819D01*
X181633333Y-71380819D02*
X181061905Y-71380819D01*
X181347619Y-71380819D02*
X181347619Y-70380819D01*
X181347619Y-70380819D02*
X181252381Y-70523676D01*
X181252381Y-70523676D02*
X181157143Y-70618914D01*
X181157143Y-70618914D02*
X181061905Y-70666533D01*
X159886667Y-71333200D02*
X160029524Y-71380819D01*
X160029524Y-71380819D02*
X160267619Y-71380819D01*
X160267619Y-71380819D02*
X160362857Y-71333200D01*
X160362857Y-71333200D02*
X160410476Y-71285580D01*
X160410476Y-71285580D02*
X160458095Y-71190342D01*
X160458095Y-71190342D02*
X160458095Y-71095104D01*
X160458095Y-71095104D02*
X160410476Y-70999866D01*
X160410476Y-70999866D02*
X160362857Y-70952247D01*
X160362857Y-70952247D02*
X160267619Y-70904628D01*
X160267619Y-70904628D02*
X160077143Y-70857009D01*
X160077143Y-70857009D02*
X159981905Y-70809390D01*
X159981905Y-70809390D02*
X159934286Y-70761771D01*
X159934286Y-70761771D02*
X159886667Y-70666533D01*
X159886667Y-70666533D02*
X159886667Y-70571295D01*
X159886667Y-70571295D02*
X159934286Y-70476057D01*
X159934286Y-70476057D02*
X159981905Y-70428438D01*
X159981905Y-70428438D02*
X160077143Y-70380819D01*
X160077143Y-70380819D02*
X160315238Y-70380819D01*
X160315238Y-70380819D02*
X160458095Y-70428438D01*
X160791429Y-70380819D02*
X161029524Y-71380819D01*
X161029524Y-71380819D02*
X161220000Y-70666533D01*
X161220000Y-70666533D02*
X161410476Y-71380819D01*
X161410476Y-71380819D02*
X161648572Y-70380819D01*
X161981905Y-70476057D02*
X162029524Y-70428438D01*
X162029524Y-70428438D02*
X162124762Y-70380819D01*
X162124762Y-70380819D02*
X162362857Y-70380819D01*
X162362857Y-70380819D02*
X162458095Y-70428438D01*
X162458095Y-70428438D02*
X162505714Y-70476057D01*
X162505714Y-70476057D02*
X162553333Y-70571295D01*
X162553333Y-70571295D02*
X162553333Y-70666533D01*
X162553333Y-70666533D02*
X162505714Y-70809390D01*
X162505714Y-70809390D02*
X161934286Y-71380819D01*
X161934286Y-71380819D02*
X162553333Y-71380819D01*
X178946667Y-52233200D02*
X179089524Y-52280819D01*
X179089524Y-52280819D02*
X179327619Y-52280819D01*
X179327619Y-52280819D02*
X179422857Y-52233200D01*
X179422857Y-52233200D02*
X179470476Y-52185580D01*
X179470476Y-52185580D02*
X179518095Y-52090342D01*
X179518095Y-52090342D02*
X179518095Y-51995104D01*
X179518095Y-51995104D02*
X179470476Y-51899866D01*
X179470476Y-51899866D02*
X179422857Y-51852247D01*
X179422857Y-51852247D02*
X179327619Y-51804628D01*
X179327619Y-51804628D02*
X179137143Y-51757009D01*
X179137143Y-51757009D02*
X179041905Y-51709390D01*
X179041905Y-51709390D02*
X178994286Y-51661771D01*
X178994286Y-51661771D02*
X178946667Y-51566533D01*
X178946667Y-51566533D02*
X178946667Y-51471295D01*
X178946667Y-51471295D02*
X178994286Y-51376057D01*
X178994286Y-51376057D02*
X179041905Y-51328438D01*
X179041905Y-51328438D02*
X179137143Y-51280819D01*
X179137143Y-51280819D02*
X179375238Y-51280819D01*
X179375238Y-51280819D02*
X179518095Y-51328438D01*
X179851429Y-51280819D02*
X180089524Y-52280819D01*
X180089524Y-52280819D02*
X180280000Y-51566533D01*
X180280000Y-51566533D02*
X180470476Y-52280819D01*
X180470476Y-52280819D02*
X180708572Y-51280819D01*
X180994286Y-51280819D02*
X181613333Y-51280819D01*
X181613333Y-51280819D02*
X181280000Y-51661771D01*
X181280000Y-51661771D02*
X181422857Y-51661771D01*
X181422857Y-51661771D02*
X181518095Y-51709390D01*
X181518095Y-51709390D02*
X181565714Y-51757009D01*
X181565714Y-51757009D02*
X181613333Y-51852247D01*
X181613333Y-51852247D02*
X181613333Y-52090342D01*
X181613333Y-52090342D02*
X181565714Y-52185580D01*
X181565714Y-52185580D02*
X181518095Y-52233200D01*
X181518095Y-52233200D02*
X181422857Y-52280819D01*
X181422857Y-52280819D02*
X181137143Y-52280819D01*
X181137143Y-52280819D02*
X181041905Y-52233200D01*
X181041905Y-52233200D02*
X180994286Y-52185580D01*
X132711905Y-69429819D02*
X132711905Y-68429819D01*
X132711905Y-68429819D02*
X132950000Y-68429819D01*
X132950000Y-68429819D02*
X133092857Y-68477438D01*
X133092857Y-68477438D02*
X133188095Y-68572676D01*
X133188095Y-68572676D02*
X133235714Y-68667914D01*
X133235714Y-68667914D02*
X133283333Y-68858390D01*
X133283333Y-68858390D02*
X133283333Y-69001247D01*
X133283333Y-69001247D02*
X133235714Y-69191723D01*
X133235714Y-69191723D02*
X133188095Y-69286961D01*
X133188095Y-69286961D02*
X133092857Y-69382200D01*
X133092857Y-69382200D02*
X132950000Y-69429819D01*
X132950000Y-69429819D02*
X132711905Y-69429819D01*
X133664286Y-68525057D02*
X133711905Y-68477438D01*
X133711905Y-68477438D02*
X133807143Y-68429819D01*
X133807143Y-68429819D02*
X134045238Y-68429819D01*
X134045238Y-68429819D02*
X134140476Y-68477438D01*
X134140476Y-68477438D02*
X134188095Y-68525057D01*
X134188095Y-68525057D02*
X134235714Y-68620295D01*
X134235714Y-68620295D02*
X134235714Y-68715533D01*
X134235714Y-68715533D02*
X134188095Y-68858390D01*
X134188095Y-68858390D02*
X133616667Y-69429819D01*
X133616667Y-69429819D02*
X134235714Y-69429819D01*
X136421428Y-66737704D02*
X136878571Y-66737704D01*
X136649999Y-66737704D02*
X136649999Y-67537704D01*
X136649999Y-67537704D02*
X136726190Y-67423419D01*
X136726190Y-67423419D02*
X136802380Y-67347228D01*
X136802380Y-67347228D02*
X136878571Y-67309133D01*
X142911905Y-69329819D02*
X142911905Y-68329819D01*
X142911905Y-68329819D02*
X143150000Y-68329819D01*
X143150000Y-68329819D02*
X143292857Y-68377438D01*
X143292857Y-68377438D02*
X143388095Y-68472676D01*
X143388095Y-68472676D02*
X143435714Y-68567914D01*
X143435714Y-68567914D02*
X143483333Y-68758390D01*
X143483333Y-68758390D02*
X143483333Y-68901247D01*
X143483333Y-68901247D02*
X143435714Y-69091723D01*
X143435714Y-69091723D02*
X143388095Y-69186961D01*
X143388095Y-69186961D02*
X143292857Y-69282200D01*
X143292857Y-69282200D02*
X143150000Y-69329819D01*
X143150000Y-69329819D02*
X142911905Y-69329819D01*
X144435714Y-69329819D02*
X143864286Y-69329819D01*
X144150000Y-69329819D02*
X144150000Y-68329819D01*
X144150000Y-68329819D02*
X144054762Y-68472676D01*
X144054762Y-68472676D02*
X143959524Y-68567914D01*
X143959524Y-68567914D02*
X143864286Y-68615533D01*
X146621428Y-66637704D02*
X147078571Y-66637704D01*
X146849999Y-66637704D02*
X146849999Y-67437704D01*
X146849999Y-67437704D02*
X146926190Y-67323419D01*
X146926190Y-67323419D02*
X147002380Y-67247228D01*
X147002380Y-67247228D02*
X147078571Y-67209133D01*
D13*
%TO.C,SW5*%
X130700000Y-75100000D02*
X131300000Y-75100000D01*
X131000000Y-75400000D02*
X130700000Y-75100000D01*
X131300000Y-75100000D02*
X131000000Y-75400000D01*
X132400000Y-73300000D02*
X132400000Y-85100000D01*
X136500000Y-73300000D02*
X132400000Y-73300000D01*
X136500000Y-85100000D02*
X132400000Y-85100000D01*
X138000000Y-79200000D02*
X139000000Y-79200000D01*
X138500000Y-78700000D02*
X138500000Y-79700000D01*
X140500000Y-73300000D02*
X144600000Y-73300000D01*
X144600000Y-73300000D02*
X144600000Y-75700000D01*
X144600000Y-77900000D02*
X144600000Y-80500000D01*
X144600000Y-82700000D02*
X144600000Y-85100000D01*
X144600000Y-85100000D02*
X140500000Y-85100000D01*
X141500000Y-79200000D02*
G75*
G02*
X135500000Y-79200000I-3000000J0D01*
G01*
X135500000Y-79200000D02*
G75*
G02*
X141500000Y-79200000I3000000J0D01*
G01*
%TO.C,SW4*%
X154235000Y-52715000D02*
X168205000Y-52715000D01*
X154235000Y-66685000D02*
X154235000Y-52715000D01*
X168205000Y-52715000D02*
X168205000Y-66685000D01*
X168205000Y-66685000D02*
X154235000Y-66685000D01*
D14*
%TO.C,U1*%
X134408728Y-41017500D02*
X142404000Y-41017500D01*
X142904000Y-41517500D02*
X142904000Y-42427500D01*
D10*
X145385000Y-42427500D02*
X131415000Y-42427500D01*
D14*
X145385000Y-42427500D02*
X131415000Y-42427500D01*
X133905000Y-42427500D02*
X133908728Y-41517228D01*
X147290000Y-61477500D02*
X147290000Y-44332500D01*
X129510000Y-61477500D02*
X129510000Y-44332500D01*
X131415000Y-63382500D02*
X145385000Y-63382500D01*
X142404000Y-41017500D02*
G75*
G02*
X142904000Y-41517500I0J-500000D01*
G01*
X133908728Y-41517228D02*
G75*
G02*
X134408728Y-41017501I500018J-291D01*
G01*
X145385000Y-42427500D02*
G75*
G02*
X147290000Y-44332500I0J-1905000D01*
G01*
X129510000Y-44332500D02*
G75*
G02*
X131415000Y-42427500I1905001J-1D01*
G01*
X147290000Y-61477500D02*
G75*
G02*
X145385000Y-63382500I-1905000J0D01*
G01*
X131415000Y-63382500D02*
G75*
G02*
X129510000Y-61477500I1J1905001D01*
G01*
D15*
X129702000Y-42668500D02*
G75*
G02*
X129198000Y-42668500I-252000J0D01*
G01*
X129198000Y-42668500D02*
G75*
G02*
X129702000Y-42668500I252000J0D01*
G01*
X130845000Y-43548500D02*
G75*
G02*
X130341000Y-43548500I-252000J0D01*
G01*
X130341000Y-43548500D02*
G75*
G02*
X130845000Y-43548500I252000J0D01*
G01*
D13*
%TO.C,SW1*%
X187285000Y-85785000D02*
X173315000Y-85785000D01*
X187285000Y-71815000D02*
X187285000Y-85785000D01*
X173315000Y-85785000D02*
X173315000Y-71815000D01*
X173315000Y-71815000D02*
X187285000Y-71815000D01*
%TO.C,SW2*%
X168205000Y-85785000D02*
X154235000Y-85785000D01*
X168205000Y-71815000D02*
X168205000Y-85785000D01*
X154235000Y-85785000D02*
X154235000Y-71815000D01*
X154235000Y-71815000D02*
X168205000Y-71815000D01*
%TO.C,SW3*%
X187265000Y-66685000D02*
X173295000Y-66685000D01*
X187265000Y-52715000D02*
X187265000Y-66685000D01*
X173295000Y-66685000D02*
X173295000Y-52715000D01*
X173295000Y-52715000D02*
X187265000Y-52715000D01*
%TO.C,D2*%
X136250000Y-68225000D02*
X136250000Y-64225000D01*
X136250000Y-68225000D02*
X130650000Y-68225000D01*
X136250000Y-64225000D02*
X131250000Y-64225000D01*
X130650000Y-64825000D02*
X131250000Y-64225000D01*
X130650000Y-64825000D02*
X130650000Y-68225000D01*
%TO.C,D1*%
X146450000Y-68125000D02*
X146450000Y-64125000D01*
X146450000Y-68125000D02*
X140850000Y-68125000D01*
X146450000Y-64125000D02*
X141450000Y-64125000D01*
X140850000Y-64725000D02*
X141450000Y-64125000D01*
X140850000Y-64725000D02*
X140850000Y-68125000D01*
%TD*%
M02*
